# xmcd
#
# Track frame offsets:
#	150
#	18635
#	35400
#
# Disc length: 718 seconds
#
# Revision: 1
# Processed by: cddbd v1.5.1PL0 Copyright (c) Steve Scherf et al.
# Submitted via: dBpowerAMP V4.0
#
DISCID=1d02cc03
DTITLE=Thunder - Love Worth Dying For CD1
DYEAR=1997
DGENRE=Rock
TTITLE0=Love Worth Dying For
TTITLE1=Somebody To Love
TTITLE2=Lethal Combination
EXTD=
EXTT0=
EXTT1=
EXTT2=
PLAYORDER=
